<?xml version="1.0" encoding="UTF-8" standalone="no"?>
<!-- Created with Inkscape (http://www.inkscape.org/) -->

<svg
   version="1.1"
   id="svg1"
   width="1918.4395"
   height="2168.4363"
   viewBox="0 0 1918.4395 2168.4363"
   sodipodi:docname="tiktok.svg"
   inkscape:version="1.4.3 (0d15f75, 2025-12-25)"
   inkscape:export-filename="tiktok.svg"
   inkscape:export-xdpi="96"
   inkscape:export-ydpi="96"
   xmlns:inkscape="http://www.inkscape.org/namespaces/inkscape"
   xmlns:sodipodi="http://sodipodi.sourceforge.net/DTD/sodipodi-0.dtd"
   xmlns="http://www.w3.org/2000/svg"
   xmlns:svg="http://www.w3.org/2000/svg">
  <defs
     id="defs1" />
  <sodipodi:namedview
     id="namedview1"
     pagecolor="#ffffff"
     bordercolor="#000000"
     borderopacity="0.25"
     inkscape:showpageshadow="2"
     inkscape:pageopacity="0.0"
     inkscape:pagecheckerboard="0"
     inkscape:deskcolor="#d1d1d1"
     inkscape:zoom="0.23190001"
     inkscape:cx="377.31779"
     inkscape:cy="1261.3195"
     inkscape:window-width="1920"
     inkscape:window-height="991"
     inkscape:window-x="-9"
     inkscape:window-y="-9"
     inkscape:window-maximized="1"
     inkscape:current-layer="layer-MC0">
    <inkscape:page
       x="0"
       y="0"
       width="1918.4395"
       height="2168.4363"
       id="page2"
       margin="0"
       bleed="0" />
  </sodipodi:namedview>
  <g
     id="layer-MC0"
     inkscape:groupmode="layer"
     inkscape:label="katman 1"
     transform="translate(-257.47351,-202.16481)">
    <path
       id="path1"
       d="m 0,0 v -266.226 c 0,0 -94.728,3.872 -164.83,22.478 -97.883,26.024 -160.796,65.939 -160.796,65.939 0,0 -43.46,28.464 -46.974,30.448 v -549.758 c 0,-30.61 -8.034,-107.056 -32.529,-170.815 -31.977,-83.407 -81.325,-138.155 -90.401,-149.345 0,0 -60.018,-74.006 -165.904,-123.842 -95.442,-44.957 -179.24,-43.818 -204.288,-44.957 0,0 -144.856,-5.985 -275.204,82.399 -28.187,19.481 -54.498,41.545 -78.593,65.906 l 0.651,-0.488 c 130.38,-88.384 275.204,-82.399 275.204,-82.399 25.081,1.139 108.878,0 204.289,44.956 105.787,49.836 165.902,123.842 165.902,123.842 8.979,11.191 58.555,65.939 90.402,149.378 24.429,63.727 32.53,140.205 32.53,170.816 v 549.692 c 3.513,-2.017 46.94,-30.48 46.94,-30.48 0,0 62.946,-39.947 160.829,-65.939 70.134,-18.607 164.83,-22.478 164.83,-22.478 V 7.742 C -45.542,0.163 -17.925,-1.887 0,0 m -357.604,191.277 c -59.008,67.467 -81.324,135.585 -89.392,183.436 h 74.234 c 0,0 -14.801,-125.468 93.069,-248.854 l 1.496,-1.659 c -29.073,19.08 -55.735,41.602 -79.407,67.077 m -814.389,-801.508 c 9.369,80.935 41.183,126.249 101.137,172.702 85.781,62.913 192.935,27.325 192.935,27.325 v 211.12 c 26.05,0.695 52.111,-0.916 77.877,-4.814 v -271.691 c 0,0 -107.122,35.588 -192.903,-27.358 -59.921,-46.42 -91.8,-91.767 -101.136,-172.702 -0.293,-43.948 7.612,-101.395 44.013,-151.069 -9,4.814 -18.173,10.301 -27.52,16.46 -80.187,56.179 -94.793,140.465 -94.402,200.027 z m -211.119,-341.338 5.335,-15.061 c -0.683,1.724 -2.636,6.994 -5.335,15.061"
       style="fill:#7cff00;fill-opacity:1;fill-rule:nonzero;stroke:none"
       transform="matrix(1.3333333,0,0,-1.3333333,2175.9128,789.05013)"
       inkscape:export-filename="path1.svg"
       inkscape:export-xdpi="96"
       inkscape:export-ydpi="96" />
    <path
       id="path2"
       d="m 0,0 v -208.55 c 0,0 -94.694,3.871 -164.829,22.478 -97.883,26.024 -160.829,65.939 -160.829,65.939 0,0 -43.428,28.464 -46.941,30.48 v -549.823 c 0,-30.61 -8.035,-107.088 -32.53,-170.815 -31.976,-83.439 -81.325,-138.187 -90.4,-149.377 0,0 -60.051,-74.006 -165.904,-123.842 -95.41,-44.957 -179.208,-43.819 -204.288,-44.957 0,0 -144.824,-5.986 -275.204,82.399 l -0.651,0.487 c -13.765,13.908 -26.723,28.592 -38.808,43.981 -41.606,52.927 -67.11,115.515 -73.518,133.374 -0.012,0.075 -0.012,0.151 0,0.227 -10.312,31.034 -31.977,105.56 -29.017,177.745 5.237,127.355 48.177,205.524 59.53,225.107 30.067,53.402 69.174,101.182 115.579,141.213 40.95,34.543 87.365,62.027 137.342,81.325 54.027,22.658 111.88,34.803 170.457,35.783 v -211.12 c 0,0 -107.154,35.458 -192.903,-27.325 -59.953,-46.453 -91.767,-91.767 -101.136,-172.702 -0.39,-59.563 14.216,-143.848 94.337,-200.06 9.347,-6.18 18.521,-11.667 27.521,-16.46 13.997,-18.984 31.033,-35.525 50.421,-48.958 78.268,-51.69 143.848,-55.3 227.71,-21.729 55.919,22.445 98.013,73.029 117.532,129.079 12.263,35.002 12.1,70.231 12.1,106.666 V 366.971 h 195.181 c 8.067,-47.851 30.383,-115.969 89.393,-183.436 23.671,-25.475 50.333,-47.997 79.405,-67.077 8.589,-9.271 52.504,-55.106 108.878,-83.245 C -62.422,18.668 -31.696,7.524 0,0"
       style="fill:#000000;fill-opacity:1;fill-rule:nonzero;stroke:none"
       transform="matrix(1.3333333,0,0,-1.3333333,2072.0325,778.7272)" />
    <path
       id="path3"
       d="M 0,0 V -0.163 L 4.814,-13.858 C 4.261,-12.264 2.472,-7.417 0,0"
       style="fill:#69c9d0;fill-opacity:1;fill-rule:nonzero;stroke:none"
       transform="matrix(1.3333333,0,0,-1.3333333,296.5872,1849.9193)" />
    <path
       id="path4"
       d="m 0,0 c -49.977,-19.298 -96.392,-46.782 -137.342,-81.325 -46.42,-40.121 -85.516,-88.002 -115.546,-141.506 -11.353,-19.518 -54.293,-97.752 -59.53,-225.107 -2.96,-72.185 18.705,-146.711 29.017,-177.745 -0.012,-0.076 -0.012,-0.152 0,-0.227 6.505,-17.696 31.911,-80.284 73.517,-133.374 12.086,-15.389 25.043,-30.073 38.809,-43.981 -44.105,30.503 -83.439,67.382 -116.718,109.432 -41.248,52.471 -66.686,114.408 -73.323,132.689 -0.008,0.13 -0.008,0.261 0,0.391 v 0.228 c -10.344,31.001 -32.074,105.56 -29.049,177.841 5.237,127.355 48.177,205.525 59.53,225.108 30.021,53.511 69.119,101.392 115.547,141.506 40.941,34.555 87.358,62.04 137.341,81.325 31.177,12.936 63.656,22.478 96.875,28.464 50.062,8.739 101.193,9.496 151.492,2.244 V 35.783 C 111.988,34.824 54.078,22.679 0,0"
       style="fill:#ff0099;fill-opacity:1;fill-rule:nonzero;stroke:none"
       transform="matrix(1.3333333,0,0,-1.3333333,778.07493,1102.2057)" />
    <path
       id="path5"
       d="m 0,0 v -57.676 c -31.641,7.536 -62.311,18.68 -91.409,33.214 -56.374,28.138 -100.29,73.973 -108.878,83.244 9.966,-6.543 20.307,-12.495 30.969,-17.826 C -100.777,6.734 -33.277,-3.48 0,0 m -369.086,309.295 h -195.18 V -727.144 c 0,-36.434 0,-71.565 -12.101,-106.666 -19.713,-56.017 -61.645,-106.601 -117.531,-129.047 -83.895,-33.7 -149.476,-29.96 -227.71,21.731 -19.421,13.372 -36.502,29.858 -50.552,48.794 66.654,-35.554 126.314,-34.937 200.223,-5.269 55.854,22.445 97.85,73.03 117.498,129.079 12.296,35.002 12.134,70.232 12.134,106.633 V 374.746 h 269.511 c 0,0 -3.025,-25.764 3.708,-65.451"
       style="fill:#ff0099;fill-opacity:1;fill-rule:nonzero;stroke:none"
       transform="matrix(1.3333333,0,0,-1.3333333,2072.0325,701.82613)" />
  </g>
</svg>
